<?xml version="1.0" encoding="iso-8859-1"?>
<!-- Generator: Adobe Illustrator 12.0.0, SVG Export Plug-In . SVG Version: 6.00 Build 51448)  -->
<!DOCTYPE svg PUBLIC "-//W3C//DTD SVG 1.1//EN" "http://www.w3.org/Graphics/SVG/1.1/DTD/svg11.dtd" [
	<!ENTITY ns_svg "http://www.w3.org/2000/svg">
	<!ENTITY ns_xlink "http://www.w3.org/1999/xlink">
]>
<svg  version="1.1" id="&#x30EC;&#x30A4;&#x30E4;&#x30FC;_1" xmlns="&ns_svg;" xmlns:xlink="&ns_xlink;" width="512" height="512"
	 viewBox="0 0 512 512" style="overflow:visible;enable-background:new 0 0 512 512;" xml:space="preserve">
<g>
	<defs>
		<path id="XMLID_1_" d="M452,0H60C27,0,0,27,0,60v392c0,33,27,60,60,60h209.283h88.582H452c33,0,60-27,60-60V60C512,27,485,0,452,0
			z"/>
	</defs>
	<clipPath id="XMLID_3_">
		<use xlink:href="#XMLID_1_" />
	</clipPath>
	<g style="clip-path:url(#XMLID_3_);">
		<rect style="fill:#1488CA;" width="512" height="512"/>
		<g>
			<path style="fill:#FFFFFF;" d="M301.669,278.067c-2.916-6.923-6.938-13.028-11.971-18.171
				c-4.977-5.064-10.842-9.235-17.43-12.408c-0.581-0.274-1.162-0.555-1.754-0.817c0.449-0.313,0.888-0.636,1.315-0.97
				c5.339-4.04,9.877-8.787,13.483-14.109c3.574-5.311,6.271-11.203,7.98-17.523c1.678-6.172,2.521-12.579,2.521-19.041
				c0-21.471-8.528-37.787-25.355-48.51c-15.994-10.184-38.862-15.139-69.896-15.139h-90.518v249.248h85.979
				c34.608,0,61.675-6.502,80.453-19.316c19.634-13.412,29.599-33.584,29.599-59.959
				C306.076,292.872,304.597,285.039,301.669,278.067z M172.696,276.818h22.944c15.655,0,27.177,2.466,34.258,7.344
				c6.402,4.402,9.384,10.097,9.384,17.907c0,3.864-0.768,7.372-2.356,10.732c-1.59,3.338-3.859,6.177-6.973,8.671
				c-3.2,2.576-7.323,4.654-12.277,6.178c-5.142,1.573-11.303,2.373-18.297,2.373h-26.683V276.818z M229.011,212.906
				c-1.086,2.861-2.895,5.355-5.503,7.646c-2.719,2.379-6.358,4.309-10.843,5.729c-4.713,1.496-10.71,2.264-17.813,2.264h-22.155
				v-47.643h22.155c7.104,0,13.188,0.625,18.056,1.852c4.538,1.146,8.222,2.719,10.94,4.688c2.434,1.754,4.144,3.781,5.196,6.188
				c1.173,2.658,1.765,5.723,1.765,9.127C230.809,206.385,230.206,209.799,229.011,212.906z"/>
			<path style="fill:#FFFFFF;" d="M401.965,347.991c0,18.022-14.624,32.636-32.646,32.636s-32.635-14.613-32.635-32.636
				c0-18.028,14.612-32.641,32.635-32.641S401.965,329.963,401.965,347.991z"/>
			<rect x="337.9" y="131.379" style="fill:#FFFFFF;" width="62.848" height="165.719"/>
		</g>
	</g>
</g>
</svg>
