<?xml version="1.0" encoding="iso-8859-1"?>
<!-- Generator: Adobe Illustrator 12.0.0, SVG Export Plug-In . SVG Version: 6.00 Build 51448)  -->
<!DOCTYPE svg PUBLIC "-//W3C//DTD SVG 1.1//EN" "http://www.w3.org/Graphics/SVG/1.1/DTD/svg11.dtd" [
	<!ENTITY ns_svg "http://www.w3.org/2000/svg">
	<!ENTITY ns_xlink "http://www.w3.org/1999/xlink">
]>
<svg  version="1.1" id="&#x30EC;&#x30A4;&#x30E4;&#x30FC;_1" xmlns="&ns_svg;" xmlns:xlink="&ns_xlink;" width="512" height="512"
	 viewBox="0 0 512 512" style="overflow:visible;enable-background:new 0 0 512 512;" xml:space="preserve">
<g>
	<defs>
		<path id="XMLID_7_" d="M452,0H60C27,0,0,27,0,60v392c0,33,27,60,60,60h209.283h88.582H452c33,0,60-27,60-60V60C512,27,485,0,452,0
			z"/>
	</defs>
	<clipPath id="XMLID_9_">
		<use xlink:href="#XMLID_7_" />
	</clipPath>
	<g style="clip-path:url(#XMLID_9_);">
		<path style="fill-rule:evenodd;clip-rule:evenodd;fill:#39AE36;" d="M0,512C0,341.338,0,170.662,0,0c170.662,0,341.325,0,512,0
			c0,170.662,0,341.338,0,512C341.325,512,170.662,512,0,512z"/>
		<path style="fill-rule:evenodd;clip-rule:evenodd;fill:#FFFFFF;" d="M441.725,226.55c-0.024,34.726-9.962,60.188-27.137,83.075
			c-11.588,15.45-25.038,29.162-39.613,41.8c-31.074,26.925-64.712,50.275-100.012,71.25c-7.238,4.3-15,7.713-22.601,11.362
			c-1.737,0.838-3.8,1.313-5.737,1.388c-4.912,0.213-7.425-2.2-6.862-7.975c0.524-5.362,1.55-10.675,2.45-16
			c1.012-6,1.762-12,0.938-18.101c-0.563-4.225-3.051-6.887-6.601-8.787c-4.875-2.612-10.2-3.725-15.612-4.513
			c-16.388-2.388-32.25-6.737-47.638-12.875c-18.6-7.425-35.763-17.325-51.037-30.3c-24.675-20.938-42.025-46.563-49.138-78.537
			c-2.487-11.176-3.35-22.538-2.55-33.913c1.95-27.675,12.162-52.175,29.45-73.787c18.375-23,41.637-39.488,68.438-51.2
			C192.425,88.962,217.55,83.3,243.65,81.962c40.449-2.087,78.875,5.45,114.712,24.6c27.663,14.775,50.4,34.963,66.2,62.375
			C435.862,188.537,441.662,209.675,441.725,226.55z M255.463,227.162c12.512,17.051,24.587,33.5,36.649,49.938
			c2,2.738,4.525,4.676,8.013,4.863c6.075,0.337,10.75-4.513,10.75-11.125c0.013-23.9,0-47.813,0-71.726
			c0-0.575,0.025-1.162-0.05-1.737c-0.487-4.175-2.675-7.213-6.538-8.725c-3.787-1.488-7.387-0.75-10.412,2.063
			c-2.537,2.362-3.325,5.462-3.325,8.8c-0.013,13.25,0,26.487,0,39.737c0,0.888,0,1.775,0,3.275c-0.774-0.95-1.188-1.413-1.55-1.913
			c-7.925-10.8-15.838-21.6-23.763-32.388c-3.774-5.175-7.563-10.337-11.337-15.512c-2.563-3.525-5.963-5.375-10.338-4.601
			c-3.787,0.675-6.525,2.95-7.662,6.7c-0.513,1.713-0.688,3.588-0.688,5.388c-0.038,23.237-0.038,46.475,0,69.712
			c0,1.726,0.162,3.525,0.675,5.15c1.438,4.6,6.337,7.6,10.862,6.888c4.7-0.737,8.65-5.237,8.688-10.138
			c0.075-8.737,0.025-17.487,0.025-26.237C255.463,239.688,255.463,233.787,255.463,227.162z M343.412,207.987
			c0.788,0,1.688,0,2.588,0c8.162,0,16.325,0.05,24.487-0.013c5.375-0.037,9.601-4.487,9.601-9.962c0-5.601-4.138-9.963-9.601-9.987
			c-12.5-0.038-24.987-0.038-37.487,0c-5.263,0.012-9.487,4.262-9.487,9.512c-0.025,24.9-0.025,49.801,0,74.7
			c0,5.313,4.313,9.726,9.575,9.737c12.487,0.038,24.987,0.051,37.475,0c5.075-0.024,9.45-4.55,9.513-9.625
			c0.075-5.813-3.688-10.225-9.138-10.337c-8.237-0.15-16.487-0.075-24.737-0.101c-0.888,0-1.775,0-2.813,0
			c0-5.787,0-11.262,0-16.925c0.813,0,1.725,0,2.625,0c8,0,16,0.013,23.987,0c5.537-0.024,10-4.263,10.075-9.537
			c0.1-6.038-3.737-10.351-9.588-10.45c-8.075-0.125-16.162-0.063-24.237-0.075c-0.888,0-1.787,0-2.838,0
			C343.412,219.162,343.412,213.688,343.412,207.987z M156.475,261.912c0-1.3,0-2.3,0-3.287c0-20.075,0.013-40.162,0-60.237
			c-0.012-6.088-4.6-10.525-10.637-10.375c-5.463,0.149-9.426,4.6-9.426,10.725c-0.024,24.163-0.012,48.325-0.012,72.487
			c0,0.588,0.037,1.163,0.074,1.75c0.351,4.738,4.638,8.963,9.413,8.988c12.675,0.074,25.337,0.1,38-0.013
			c5.938-0.05,10.662-6.487,9.175-12.175c-1.325-5.088-4.688-7.788-10.063-7.838C174.263,261.862,165.525,261.912,156.475,261.912z
			 M221.963,235.05c0-12.075,0.012-24.149,0-36.225c-0.013-4.851-2.65-8.788-6.838-10.3c-6.763-2.45-13.463,2.612-13.5,10.5
			c-0.1,23.975-0.063,47.962,0.025,71.949c0,1.851,0.5,3.838,1.287,5.5c1.925,4.013,6.938,6.363,10.825,5.375
			c4.763-1.199,8.162-5.399,8.188-10.313C221.987,259.375,221.963,247.213,221.963,235.05z"/>
		<path style="fill-rule:evenodd;clip-rule:evenodd;fill:#3FAF35;" d="M255.463,227.162c0,6.625,0,12.525,0,18.413
			c0,8.75,0.05,17.5-0.025,26.237c-0.037,4.9-3.987,9.4-8.688,10.138c-4.525,0.712-9.425-2.288-10.862-6.888
			c-0.513-1.625-0.675-3.425-0.675-5.15c-0.038-23.237-0.038-46.475,0-69.712c0-1.8,0.175-3.675,0.688-5.388
			c1.137-3.75,3.875-6.025,7.662-6.7c4.375-0.774,7.775,1.075,10.338,4.601c3.774,5.175,7.563,10.337,11.337,15.512
			c7.925,10.788,15.838,21.588,23.763,32.388c0.362,0.5,0.775,0.963,1.55,1.913c0-1.5,0-2.388,0-3.275
			c0-13.25-0.013-26.487,0-39.737c0-3.338,0.788-6.438,3.325-8.8c3.025-2.813,6.625-3.551,10.412-2.063
			c3.863,1.512,6.051,4.55,6.538,8.725c0.075,0.575,0.05,1.162,0.05,1.737c0,23.913,0.013,47.825,0,71.726
			c0,6.612-4.675,11.462-10.75,11.125c-3.487-0.188-6.013-2.125-8.013-4.863C280.05,260.662,267.975,244.213,255.463,227.162z"/>
		<path style="fill-rule:evenodd;clip-rule:evenodd;fill:#3FAF35;" d="M343.412,207.987c0,5.7,0,11.175,0,16.938
			c1.051,0,1.95,0,2.838,0c8.075,0.013,16.162-0.05,24.237,0.075c5.851,0.1,9.688,4.412,9.588,10.45
			c-0.075,5.274-4.538,9.513-10.075,9.537c-7.987,0.013-15.987,0-23.987,0c-0.9,0-1.813,0-2.625,0c0,5.663,0,11.138,0,16.925
			c1.037,0,1.925,0,2.813,0c8.25,0.025,16.5-0.05,24.737,0.101c5.45,0.112,9.213,4.524,9.138,10.337
			c-0.063,5.075-4.438,9.601-9.513,9.625c-12.487,0.051-24.987,0.038-37.475,0c-5.263-0.012-9.575-4.425-9.575-9.737
			c-0.025-24.899-0.025-49.8,0-74.7c0-5.25,4.225-9.5,9.487-9.512c12.5-0.038,24.987-0.038,37.487,0
			c5.463,0.024,9.601,4.387,9.601,9.987c0,5.475-4.226,9.925-9.601,9.962c-8.162,0.063-16.325,0.013-24.487,0.013
			C345.1,207.987,344.2,207.987,343.412,207.987z"/>
		<path style="fill-rule:evenodd;clip-rule:evenodd;fill:#3FAF35;" d="M156.475,261.912c9.051,0,17.788-0.05,26.525,0.025
			c5.375,0.05,8.737,2.75,10.063,7.838c1.487,5.688-3.237,12.125-9.175,12.175c-12.663,0.112-25.325,0.087-38,0.013
			c-4.775-0.025-9.063-4.25-9.413-8.988c-0.037-0.587-0.074-1.162-0.074-1.75c0-24.162-0.013-48.324,0.012-72.487
			c0-6.125,3.963-10.575,9.426-10.725c6.037-0.15,10.625,4.287,10.637,10.375c0.013,20.075,0,40.162,0,60.237
			C156.475,259.612,156.475,260.612,156.475,261.912z"/>
		<path style="fill-rule:evenodd;clip-rule:evenodd;fill:#3FAF35;" d="M221.963,235.05c0,12.163,0.024,24.325-0.013,36.487
			c-0.025,4.913-3.425,9.113-8.188,10.313c-3.888,0.988-8.9-1.362-10.825-5.375c-0.787-1.662-1.287-3.649-1.287-5.5
			c-0.088-23.987-0.125-47.975-0.025-71.949c0.037-7.888,6.737-12.95,13.5-10.5c4.188,1.512,6.825,5.449,6.838,10.3
			C221.975,210.9,221.963,222.975,221.963,235.05z"/>
	</g>
</g>
</svg>
