<?xml version="1.0" encoding="iso-8859-1"?>
<!-- Generator: Adobe Illustrator 12.0.0, SVG Export Plug-In . SVG Version: 6.00 Build 51448)  -->
<!DOCTYPE svg PUBLIC "-//W3C//DTD SVG 1.1//EN" "http://www.w3.org/Graphics/SVG/1.1/DTD/svg11.dtd" [
	<!ENTITY ns_svg "http://www.w3.org/2000/svg">
	<!ENTITY ns_xlink "http://www.w3.org/1999/xlink">
]>
<svg  version="1.1" id="&#x30EC;&#x30A4;&#x30E4;&#x30FC;_1" xmlns="&ns_svg;" xmlns:xlink="&ns_xlink;" width="512" height="512"
	 viewBox="0 0 512 512" style="overflow:visible;enable-background:new 0 0 512 512;" xml:space="preserve">
<path style="fill:#30CFE0;" d="M452,0H60C27,0,0,27,0,60v392c0,33,27,60,60,60h209.283h88.582H452c33,0,60-27,60-60V60
	C512,27,485,0,452,0z"/>
<g>
	<path style="fill:#FFFFFF;" d="M347.563,236.655c40.133,0,72.664-32.585,72.664-72.721c0-40.194-32.531-72.722-72.664-72.722
		c-40.193,0-72.725,32.528-72.725,72.722c0,7.432,1.113,14.568,3.159,21.356L204.28,229.81
		c-11.876-12.93-28.84-21.003-47.739-21.003c-35.806,0-64.767,29.019-64.767,64.767c0,35.806,28.961,64.767,64.768,64.767
		c19.717,0,37.386-8.837,49.262-22.761l55.697,29.371c-1.697,5.383-2.634,11.114-2.634,17.083
		c0.059,31.357,25.449,56.755,56.81,56.755c31.418,0,56.809-25.397,56.809-56.755c0-31.417-25.391-56.806-56.809-56.806
		c-17.202,0-32.644,7.66-43.062,19.775l-54.351-31.713c1.99-6.204,3.042-12.814,3.042-19.717c0-6.666-0.994-13.106-2.925-19.133
		l75.704-41.246C307.312,227.587,326.383,236.655,347.563,236.655z M312.633,129.064c9.013-8.956,21.24-14.45,34.93-14.45
		c13.632,0,25.859,5.495,34.869,14.45c8.895,8.952,14.393,21.179,14.393,34.869c0,13.632-5.498,25.917-14.393,34.869
		c-9.01,8.952-21.237,14.45-34.869,14.45c-12.228,0-23.287-4.388-31.944-11.817h-0.061c-0.994-0.818-1.988-1.697-2.925-2.633
		c-6.961-7.024-11.817-16.035-13.629-26.209c-0.529-2.81-0.761-5.735-0.761-8.66C298.24,150.243,303.741,138.016,312.633,129.064z
		 M197.201,281.003c-1.462,8.426-5.555,15.973-11.406,21.823c-0.47,0.469-0.994,0.938-1.522,1.405
		c-7.371,6.669-17.024,10.707-27.731,10.707c-11.467,0-21.765-4.622-29.253-12.112c-7.491-7.547-12.113-17.785-12.113-29.252
		c0-11.468,4.622-21.706,12.113-29.253c7.488-7.489,17.786-12.111,29.253-12.111c10.414,0,19.774,3.804,27.088,10.123
		c0.76,0.641,1.462,1.286,2.165,1.988c5.791,5.851,9.887,13.28,11.408,21.648c0.468,2.457,0.702,4.972,0.702,7.605
		C197.903,276.089,197.671,278.606,197.201,281.003z M282.796,356.183c1.231-6.905,4.507-12.99,9.302-17.785
		c0.41-0.411,0.879-0.879,1.348-1.229c5.908-5.383,13.632-8.542,22.231-8.542c9.305,0,17.552,3.686,23.636,9.771
		c6.085,6.084,9.771,14.338,9.771,23.636c0,9.248-3.686,17.497-9.771,23.576c-6.084,6.084-14.331,9.776-23.636,9.776
		c-9.241,0-17.491-3.692-23.579-9.776c-6.081-6.079-9.771-14.328-9.828-23.576C282.27,360.046,282.446,358.053,282.796,356.183z"/>
</g>
</svg>
