<svg xmlns="http://www.w3.org/2000/svg" width="987.096" height="393.807" overflow="visible"><path d="M864.129 75.5c-.192-.749-.644-1.521-1.313-2.271-.666-.746-1.547-1.471-2.604-2.132a19.09 19.09 0 00-3.638-1.744l-134.62-48.478c-.52-.187-1.064-.343-1.624-.469s-1.135-.223-1.716-.29a17.603 17.603 0 00-3.463-.055 14.82 14.82 0 00-1.283.165c-.416.072-.817.162-1.2.268-.384.106-.748.23-1.089.371s-.658.299-.946.475L572.08 105.397l-5.328-49.977c-.039-.36-.347-.684-.869-.961-.52-.276-1.252-.507-2.143-.682a21.64 21.64 0 00-3.083-.349 33.785 33.785 0 00-3.716.04l-147.387 9.505a32.184 32.184 0 00-2.46.255 34.55 34.55 0 00-2.379.424c-.691.149-1.356.318-1.979.5a20.21 20.21 0 00-1.728.587c-.525.207-.993.424-1.387.648-.396.224-.718.454-.95.685l-72.962 72.336-40.313-44.095c-.554-.606-1.309-1.107-2.2-1.495-.89-.388-1.917-.663-3.015-.816a15.622 15.622 0 00-3.444-.088 15.542 15.542 0 00-3.494.692l-142.197 46.213a16.547 16.547 0 00-.965.348 13.682 13.682 0 00-.9.395c-.938.45-1.757.974-2.436 1.542-.679.57-1.218 1.186-1.596 1.82-.377.636-.593 1.29-.625 1.936-.032.647.12 1.285.478 1.887l85.651 143.827c.616 1.035 1.508 1.907 2.594 2.597 1.087.691 2.368 1.199 3.76 1.505a15.25 15.25 0 004.425.292 16.217 16.217 0 004.576-1.033l169.127-65.36a13.146 13.146 0 001.018-.445 11.88 11.88 0 00.917-.507c.935-.578 1.689-1.252 2.25-1.985.561-.733.929-1.525 1.093-2.342a4.985 4.985 0 00-.135-2.479c-.257-.824-.729-1.637-1.427-2.401l-39.71-43.436 191.335-2.515 159.417 131.3a19.772 19.772 0 004.038 2.58 18.29 18.29 0 004.325 1.44 17.66 17.66 0 008.742-.471 18.09 18.09 0 003.183-1.348 18.563 18.563 0 002.922-1.965 19.51 19.51 0 002.578-2.55 20.881 20.881 0 002.155-3.102l126.04-220.707c.377-.658.447-1.388.253-2.142z" stroke="#000" stroke-width="40"/><path d="M864.129 75.5c-.192-.749-.644-1.521-1.313-2.271-.666-.746-1.547-1.471-2.604-2.132a19.09 19.09 0 00-3.638-1.744l-134.62-48.478c-.52-.187-1.064-.343-1.624-.469s-1.135-.223-1.716-.29a17.603 17.603 0 00-3.463-.055 14.82 14.82 0 00-1.283.165c-.416.072-.817.162-1.2.268-.384.106-.748.23-1.089.371s-.658.299-.946.475L572.08 105.397l-5.328-49.977c-.039-.36-.347-.684-.869-.961-.52-.276-1.252-.507-2.143-.682a21.64 21.64 0 00-3.083-.349 33.785 33.785 0 00-3.716.04l-147.387 9.505a32.184 32.184 0 00-2.46.255 34.55 34.55 0 00-2.379.424c-.691.149-1.356.318-1.979.5a20.21 20.21 0 00-1.728.587c-.525.207-.993.424-1.387.648-.396.224-.718.454-.95.685l-72.962 72.336-40.313-44.095c-.554-.606-1.309-1.107-2.2-1.495-.89-.388-1.917-.663-3.015-.816a15.622 15.622 0 00-3.444-.088 15.542 15.542 0 00-3.494.692l-142.197 46.213a16.547 16.547 0 00-.965.348 13.682 13.682 0 00-.9.395c-.938.45-1.757.974-2.436 1.542-.679.57-1.218 1.186-1.596 1.82-.377.636-.593 1.29-.625 1.936-.032.647.12 1.285.478 1.887l85.651 143.827c.616 1.035 1.508 1.907 2.594 2.597 1.087.691 2.368 1.199 3.76 1.505a15.25 15.25 0 004.425.292 16.217 16.217 0 004.576-1.033l169.127-65.36a13.146 13.146 0 001.018-.445 11.88 11.88 0 00.917-.507c.935-.578 1.689-1.252 2.25-1.985.561-.733.929-1.525 1.093-2.342a4.985 4.985 0 00-.135-2.479c-.257-.824-.729-1.637-1.427-2.401l-39.71-43.436 191.335-2.515 159.417 131.3a19.772 19.772 0 004.038 2.58 18.29 18.29 0 004.325 1.44 17.66 17.66 0 008.742-.471 18.09 18.09 0 003.183-1.348 18.563 18.563 0 002.922-1.965 19.51 19.51 0 002.578-2.55 20.881 20.881 0 002.155-3.102l126.04-220.707c.377-.658.447-1.388.253-2.142z" fill="#fff" stroke="#fff" stroke-width="20"/><path d="M147.122 144.689l83.891 132.861 146.779-56.021-104.32-118.353-126.35 41.513m235.127 77.648l-1.404.534-150.041 57.404-1.556.593-.667-1.071-84.554-134.973-.464-.73 1.322-.432 128.639-42.196 1.214-.396.585.653 106.089 119.678.837.936m-253.066-82.773c-.938.45-1.757.974-2.436 1.542-.679.57-1.218 1.186-1.596 1.82-.377.636-.593 1.29-.625 1.936-.032.647.12 1.285.478 1.887l85.651 143.827c.616 1.035 1.508 1.907 2.594 2.597 1.087.691 2.368 1.199 3.76 1.505a15.25 15.25 0 004.425.292 16.217 16.217 0 004.576-1.033l169.127-65.36a13.146 13.146 0 001.018-.445 11.88 11.88 0 00.917-.507c.935-.578 1.689-1.252 2.25-1.985.561-.733.929-1.525 1.093-2.342a4.985 4.985 0 00-.135-2.479c-.257-.824-.729-1.637-1.427-2.401L285.397 94.315c-.554-.606-1.309-1.107-2.2-1.495-.89-.388-1.917-.663-3.015-.816a15.622 15.622 0 00-3.444-.088 15.542 15.542 0 00-3.494.692l-142.197 46.213a16.547 16.547 0 00-.965.348 13.682 13.682 0 00-.899.395" fill="#3165b5"/><path d="M231.012 277.55l-83.891-132.861 126.351-41.513 104.319 118.353-146.779 56.021m-87.449-133.456l.464.73 84.554 134.973.667 1.071 1.556-.593 150.041-57.404 1.404-.534-.838-.938-106.089-119.677-.585-.653-1.214.396-128.639 42.196-1.321.433" fill="#fff"/><path d="M414.7 67.165l-86.678 96.677 218.849-4.086 1.986-100.962L414.7 67.165m136.458 94.541l-2.158.038-224.42 3.996-1.756.026.849-.932 89.1-97.877.32-.345 1.108-.069 135.928-8.524 1.259-.08-.003.348-.212 102.398-.015 1.021M404.715 63.654c-.691.149-1.356.318-1.979.5a20.21 20.21 0 00-1.728.587c-.525.207-.993.424-1.387.648-.396.224-.718.454-.95.685l-103.2 102.315c-1.021 1.013-1.624 1.979-1.836 2.86-.214.888-.031 1.687.521 2.358.555.675 1.481 1.218 2.749 1.587 1.273.371 2.887.565 4.806.541l259.711-3.414a35.978 35.978 0 002.556-.125c.834-.071 1.647-.17 2.436-.296a29.82 29.82 0 002.286-.453 26.273 26.273 0 002.105-.596 19.52 19.52 0 003.256-1.391c.953-.523 1.77-1.102 2.425-1.723.652-.619 1.144-1.278 1.452-1.967a4.051 4.051 0 00.354-2.125L566.751 55.42c-.039-.36-.347-.684-.869-.961-.52-.276-1.252-.507-2.143-.682a21.64 21.64 0 00-3.083-.349 33.785 33.785 0 00-3.716.04l-147.387 9.505a32.184 32.184 0 00-2.46.255c-.407.058-.81.122-1.207.193-.396.073-.788.15-1.171.233" fill="#ffbf00"/><path d="M328.021 163.841L414.7 67.165l134.157-8.372-1.986 100.962-218.85 4.086m85.071-97.228l-.32.345-89.1 97.877-.849.932 1.756-.026L549 161.744l2.157-.038.015-1.021.212-102.398.003-.348-1.259.08L414.2 66.543l-1.108.07" fill="#fff"/><g><path d="M715.372 273.241l-2.001-1.546-167.483-128.537-1.062-.821 1.645-1.073 173.431-113.09.611-.404.897.336L844.839 74l1.289.481-.398.606-128.958 196.022-1.4 2.132m-.22-253.18a14.82 14.82 0 00-1.283.165c-.416.072-.817.162-1.2.268-.384.106-.748.23-1.089.371s-.658.299-.946.475L526.117 133.282c-1.801 1.092-3.314 2.311-4.51 3.582-1.205 1.282-2.086 2.618-2.607 3.932-.526 1.324-.687 2.624-.443 3.819.244 1.203.896 2.298 1.99 3.199l189.348 155.952a19.772 19.772 0 004.038 2.58 18.29 18.29 0 004.325 1.44 17.66 17.66 0 008.742-.471 18.09 18.09 0 003.183-1.348 18.563 18.563 0 002.922-1.965 19.51 19.51 0 002.578-2.55 20.881 20.881 0 002.155-3.102l126.04-220.707c.376-.66.445-1.39.252-2.144-.192-.749-.644-1.521-1.313-2.271-.666-.746-1.547-1.471-2.604-2.132a19.09 19.09 0 00-3.638-1.744l-134.62-48.478c-.52-.187-1.064-.343-1.624-.469s-1.135-.223-1.716-.29a17.383 17.383 0 00-3.463-.054" fill="#bf0000"/><path fill="#bf0000" d="M721.081 29.25L550.244 141.808l163.96 124.172L842.742 74.734 721.081 29.25"/><path d="M550.244 141.808L721.081 29.25l121.661 45.485L714.204 265.98l-163.96-124.172M720.513 27.77l-.611.404-173.431 113.09-1.645 1.073 1.062.821L713.37 271.695l2.001 1.546 1.4-2.132L845.73 75.088l.398-.606-1.289-.482-123.428-45.894-.898-.336" fill="#fff"/></g><g><path d="M811.781 95.97c-40.02 4.965-44.045 8.99-49.01 49.01-4.965-40.02-8.99-44.044-49.01-49.01 40.02-4.965 44.045-8.99 49.01-49.01 4.965 40.019 8.99 44.044 49.01 49.01z" fill="#fff"/></g><g><path d="M186.121 149.97c-20.7 2.568-22.782 4.65-25.35 25.35-2.568-20.7-4.65-22.782-25.35-25.35 20.7-2.568 22.782-4.65 25.35-25.35 2.568 20.7 4.65 22.781 25.35 25.35z" fill="#fff"/></g><g><g stroke="#000" stroke-width="50"><path d="M82.25 228.06v119h83.5V206.31H223v162.5H25v-162.5h140.75l-19.813 21.75H82.25zM381.039 368.81l-38.719-67.5h-39.414v67.5h-57.25v-162.5h131.75l-18.098 21.25h-56.402v52.5h74.5v-73.75h57v95h-30.191l37.289 67.5h-60.465zM507.186 368.81h-55v-162.5h55v162.5zM584.631 227.56v120h139.336l-12.43 21.25H527.881v-162.5h189.023l-15.254 21.25H584.631zM804.426 307.81h72.801l-16.668 22.25h-65.457l-14.973 38.75h-50.453l65.539-162.5h88.961l65.82 162.5H900.11l-22.883-61-30.512-79.664h-14.039l-28.25 79.664z"/></g><g fill="#fff" stroke="#fff" stroke-width="30"><path d="M82.25 227.757v119h83.5v-140.75H223v162.5H25v-162.5h140.75l-19.813 21.75H82.25zM381.039 368.507l-38.719-67.5h-39.414v67.5h-57.25v-162.5h131.75l-18.098 21.25h-56.402v52.5h74.5v-73.75h57v95h-30.191l37.289 67.5h-60.465zM507.186 368.507h-55v-162.5h55v162.5zM584.631 227.257v120h139.336l-12.43 21.25H527.881v-162.5h189.023l-15.254 21.25H584.631zM804.426 307.507h72.801l-16.668 22.25h-65.457l-14.973 38.75h-50.453l65.539-162.5h88.961l65.82 162.5H900.11l-22.883-61-30.512-79.664h-14.039l-28.25 79.664z"/></g><linearGradient id="a" gradientUnits="userSpaceOnUse" x1="124" y1="369.97" x2="124" y2="231.97"><stop offset="0" stop-color="#002482"/><stop offset=".466" stop-color="#78c4ff"/><stop offset=".624" stop-color="#dbf2fa"/><stop offset=".73" stop-color="#78c4ff"/><stop offset="1" stop-color="#002482"/></linearGradient><path d="M82.25 223.757v119h83.5v-140.75H223v162.5H25v-162.5h140.75l-19.813 21.75H82.25z" fill="url(#a)"/><linearGradient id="b" gradientUnits="userSpaceOnUse" x1="343.58" y1="369.97" x2="343.58" y2="231.97"><stop offset="0" stop-color="#002482"/><stop offset=".466" stop-color="#78c4ff"/><stop offset=".624" stop-color="#dbf2fa"/><stop offset=".73" stop-color="#78c4ff"/><stop offset="1" stop-color="#002482"/></linearGradient><path d="M381.039 364.507l-38.719-67.5h-39.414v67.5h-57.25v-162.5h131.75l-18.098 21.25h-56.402v52.5h74.5v-73.75h57v95h-30.191l37.289 67.5h-60.465z" fill="url(#b)"/><linearGradient id="c" gradientUnits="userSpaceOnUse" x1="479.686" y1="369.97" x2="479.686" y2="231.97"><stop offset="0" stop-color="#002482"/><stop offset=".466" stop-color="#78c4ff"/><stop offset=".624" stop-color="#dbf2fa"/><stop offset=".73" stop-color="#78c4ff"/><stop offset="1" stop-color="#002482"/></linearGradient><path d="M507.186 364.507h-55v-162.5h55v162.5z" fill="url(#c)"/><linearGradient id="d" gradientUnits="userSpaceOnUse" x1="625.924" y1="369.97" x2="625.924" y2="231.97"><stop offset="0" stop-color="#002482"/><stop offset=".466" stop-color="#78c4ff"/><stop offset=".624" stop-color="#dbf2fa"/><stop offset=".73" stop-color="#78c4ff"/><stop offset="1" stop-color="#002482"/></linearGradient><path d="M584.631 223.257v120h139.336l-12.43 21.25H527.881v-162.5h189.023l-15.254 21.25H584.631z" fill="url(#d)"/><linearGradient id="e" gradientUnits="userSpaceOnUse" x1="839.836" y1="369.97" x2="839.836" y2="231.97"><stop offset="0" stop-color="#002482"/><stop offset=".466" stop-color="#78c4ff"/><stop offset=".624" stop-color="#dbf2fa"/><stop offset=".73" stop-color="#78c4ff"/><stop offset="1" stop-color="#002482"/></linearGradient><path d="M804.426 303.507h72.801l-16.668 22.25h-65.457l-14.973 38.75h-50.453l65.539-162.5h88.961l65.82 162.5H900.11l-22.883-61-30.512-79.664h-14.039l-28.25 79.664z" fill="url(#e)"/></g><g><g stroke="#000" stroke-width="11" stroke-linecap="round" stroke-linejoin="round"><path d="M240.912 163.559h-29.25V128.59h29.25v34.969zm-7.125-6.656v-21.656h-15v21.656h15zM267.068 144.809h-10.406v18.75h-7.219v-25.5h17.625v6.75zM274.756 138.059h10.688v25.5h-7.219v-18.75h-3.469v-6.75zm10.687-3.75h-7.219v-7.219h7.219v7.219zM321.537 167.825h-24.75v-6.609h17.625v-3.656h-17.625v-19.313h24.75v29.578zm-7.125-17.016v-5.813h-10.406v5.813h10.406zM329.225 138.059h10.688v25.5h-7.219v-18.75h-3.469v-6.75zm10.687-3.75h-7.219v-7.219h7.219v7.219zM374.693 163.559h-6.938v-18.75h-9.563v18.75h-6.938v-25.5h23.438v25.5zM384.256 163.559h-1.875v-16.125h16.594v-2.625h-13.313v-6.75h20.531v25.5h-21.937zm5.25-9.375v2.719h9.469v-2.719h-9.469zM421.475 163.559h-7.125v-31.594h7.125v31.594zM481.287 163.559h-27.281V128.59h27.281v6.656h-20.063v21.656h20.063v6.657zM490.85 163.559h-1.875v-16.125h16.594v-2.625h-13.313v-6.75h20.531v25.5H490.85zm5.25-9.375v2.719h9.469v-2.719H496.1zM538.005 144.809h-10.406v18.75h-7.219v-25.5h17.625v6.75zM570.443 163.559h-23.906v-25.5h16.781v-4.969h7.125v30.469zm-7.781-18.75h-8.906v12h9.563v-12h-.657zM638.974 163.559h-6.844v-22.5l-11.063 17.906-11.25-17.906v22.5h-6.844V128.59h6.75l11.344 18.469 11.531-18.469h6.375v34.969zM648.537 163.559h-1.875v-16.125h16.594v-2.625h-13.313v-6.75h20.531v25.5h-21.937zm5.25-9.375v2.719h9.469v-2.719h-9.469zM703.662 163.559h-8.813l-7.781-10.406h-1.781v10.406h-7.219V133.09h7.219v13.313h2.063l6.938-8.344h8.531l-9.375 11.906 10.218 13.594zM712.943 163.559h-1.875v-25.5h24.75v15.563h-17.531v3.188h17.531v6.75h-22.875zm6-16.406h9.75v-2.531h-10.406v2.531h.656zM761.974 144.809h-10.406v18.75h-7.219v-25.5h17.625v6.75z"/></g><g fill="#fff"><path d="M240.912 163.559h-29.25V128.59h29.25v34.969zm-7.125-6.656v-21.656h-15v21.656h15zM267.068 144.809h-10.406v18.75h-7.219v-25.5h17.625v6.75zM274.756 138.059h10.688v25.5h-7.219v-18.75h-3.469v-6.75zm10.687-3.75h-7.219v-7.219h7.219v7.219zM321.537 167.825h-24.75v-6.609h17.625v-3.656h-17.625v-19.313h24.75v29.578zm-7.125-17.016v-5.813h-10.406v5.813h10.406zM329.225 138.059h10.688v25.5h-7.219v-18.75h-3.469v-6.75zm10.687-3.75h-7.219v-7.219h7.219v7.219zM374.693 163.559h-6.938v-18.75h-9.563v18.75h-6.938v-25.5h23.438v25.5zM384.256 163.559h-1.875v-16.125h16.594v-2.625h-13.313v-6.75h20.531v25.5h-21.937zm5.25-9.375v2.719h9.469v-2.719h-9.469zM421.475 163.559h-7.125v-31.594h7.125v31.594zM481.287 163.559h-27.281V128.59h27.281v6.656h-20.063v21.656h20.063v6.657zM490.85 163.559h-1.875v-16.125h16.594v-2.625h-13.313v-6.75h20.531v25.5H490.85zm5.25-9.375v2.719h9.469v-2.719H496.1zM538.005 144.809h-10.406v18.75h-7.219v-25.5h17.625v6.75zM570.443 163.559h-23.906v-25.5h16.781v-4.969h7.125v30.469zm-7.781-18.75h-8.906v12h9.563v-12h-.657zM638.974 163.559h-6.844v-22.5l-11.063 17.906-11.25-17.906v22.5h-6.844V128.59h6.75l11.344 18.469 11.531-18.469h6.375v34.969zM648.537 163.559h-1.875v-16.125h16.594v-2.625h-13.313v-6.75h20.531v25.5h-21.937zm5.25-9.375v2.719h9.469v-2.719h-9.469zM703.662 163.559h-8.813l-7.781-10.406h-1.781v10.406h-7.219V133.09h7.219v13.313h2.063l6.938-8.344h8.531l-9.375 11.906 10.218 13.594zM712.943 163.559h-1.875v-25.5h24.75v15.563h-17.531v3.188h17.531v6.75h-22.875zm6-16.406h9.75v-2.531h-10.406v2.531h.656zM761.974 144.809h-10.406v18.75h-7.219v-25.5h17.625v6.75z"/></g></g><g><linearGradient id="f" gradientUnits="userSpaceOnUse" x1="124" y1="225.059" x2="124" y2="351.052"><stop offset="0"/><stop offset="1" stop-color="#fff"/></linearGradient><path d="M82.25 223.757v119h83.5v-140.75H223v162.5H25v-162.5h140.75l-19.813 21.75H82.25z" opacity=".1" fill="url(#f)"/><linearGradient id="g" gradientUnits="userSpaceOnUse" x1="343.58" y1="225.059" x2="343.58" y2="351.052"><stop offset="0"/><stop offset="1" stop-color="#fff"/></linearGradient><path d="M381.039 364.507l-38.719-67.5h-39.414v67.5h-57.25v-162.5h131.75l-18.098 21.25h-56.402v52.5h74.5v-73.75h57v95h-30.191l37.289 67.5h-60.465z" opacity=".1" fill="url(#g)"/><linearGradient id="h" gradientUnits="userSpaceOnUse" x1="479.685" y1="225.059" x2="479.685" y2="351.052"><stop offset="0"/><stop offset="1" stop-color="#fff"/></linearGradient><path d="M507.186 364.507h-55v-162.5h55v162.5z" opacity=".1" fill="url(#h)"/><linearGradient id="i" gradientUnits="userSpaceOnUse" x1="625.924" y1="225.059" x2="625.924" y2="351.052"><stop offset="0"/><stop offset="1" stop-color="#fff"/></linearGradient><path d="M584.631 223.257v120h139.336l-12.43 21.25H527.881v-162.5h189.023l-15.254 21.25H584.631z" opacity=".1" fill="url(#i)"/><linearGradient id="j" gradientUnits="userSpaceOnUse" x1="839.836" y1="225.059" x2="839.836" y2="351.052"><stop offset="0"/><stop offset="1" stop-color="#fff"/></linearGradient><path d="M804.426 303.507h72.801l-16.668 22.25h-65.457l-14.973 38.75h-50.453l65.539-162.5h88.961l65.82 162.5H900.11l-22.883-61-30.512-79.664h-14.039l-28.25 79.664z" opacity=".1" fill="url(#j)"/></g></svg>